# xmcd
#
# Track frame offsets: 
#        150
#        17165
#        29977
#        44617
#        58695
#        97215
#        117847
#        137617
#        160780
#        182160
#
# Disc length: 2648 seconds
#
# Revision: 2
# Processed by: cddbd v1.5.2PL0 Copyright (c) Steve Scherf et al.
# Submitted via: ExactAudioCopy v1.0b3
#
DISCID=900a560a
DTITLE=Rolling Stones, The - Their Satanic Majesties Request
DYEAR=2002
DGENRE=Rock
TTITLE0=Sing This All Together
TTITLE1=Citadel
TTITLE2=In Another Land
TTITLE3=2000 Man
TTITLE4=Sing This All Together (See What Happens)
TTITLE5=She's A Rainbow
TTITLE6=The Lantern
TTITLE7=Gomper
TTITLE8=2000 Light Years From Home
TTITLE9=On With The Show
EXTD=
EXTT0=
EXTT1=
EXTT2=
EXTT3=
EXTT4=
EXTT5=
EXTT6=
EXTT7=
EXTT8=
EXTT9=
PLAYORDER=
